<svg xmlns="http://www.w3.org/2000/svg" viewBox="0 0 60 60" width="512" height="512"><path d="M54 35v-5h1v-2.614c0-5.639-2.104-11.077-5.905-15.407.066-.247.112-.5.111-.76a2.874 2.874 0 0 0-.938-2.115C43.845 5.097 35.73 3 30 3S16.155 5.097 11.732 9.103a2.875 2.875 0 0 0-.938 2.115c0 .104.021.205.031.308C7.075 15.865 5 21.469 5 27.386V30h1v5c-3.309 0-6 2.691-6 6v10c0 3.309 2.691 6 6 6h5.514A4.492 4.492 0 0 0 16 52.514V39.787c0-2.37-1.736-4.329-4-4.708V30h1v-2.614c0-3.804 1.36-7.558 3.727-10.4a2.943 2.943 0 0 0 1.994-.719C20.977 14.313 26.374 13 30 13s9.023 1.313 11.279 3.267c.435.376.95.601 1.48.683C45.452 19.854 47 23.633 47 27.386V30h1v5.08c-2.264.378-4 2.337-4 4.708v12.727A4.492 4.492 0 0 0 48.486 57H54c3.309 0 6-2.691 6-6V41c0-3.309-2.691-6-6-6zM5 54.873A4.006 4.006 0 0 1 2 51V41a4.006 4.006 0 0 1 3-3.873v17.746zM13.873 39H12a1 1 0 1 0 0 2h2v2h-2a1 1 0 1 0 0 2h2v2h-2a1 1 0 1 0 0 2h2v2h-2a1 1 0 1 0 0 2h1.951a2.49 2.49 0 0 1-2.437 2H7V37h4.213c1.262 0 2.318.848 2.66 2zM8 35v-5h2v5H8zm3-7.614V28H7v-.614c0-5.156 1.699-10.058 4.807-13.941l2.978 2.737C12.336 19.335 11 23.269 11 27.386zm32.806-12.627c-.003.003-.007.003-.01.006a.871.871 0 0 1-.293.174c-.063.022-.13.028-.196.036-.026.002-.059.013-.082.014l-.039.001a.956.956 0 0 1-.598-.234C39.599 12.165 33.427 11 30 11s-9.599 1.165-12.589 3.755a.922.922 0 0 1-.859.194.86.86 0 0 1-.359-.19l-3.102-2.851-.001-.001a.908.908 0 0 1-.236-.387.924.924 0 0 1-.061-.294.858.858 0 0 1 .281-.641C17.079 6.957 24.784 5 30 5s12.921 1.957 16.925 5.585c.18.163.28.391.281.641a.923.923 0 0 1-.074.357l-.032.056a.9.9 0 0 1-.175.245c-.006.006-.012.019-.018.024l-3.101 2.851zM53 55h-4.514a2.489 2.489 0 0 1-2.437-2H48a1 1 0 1 0 0-2h-2v-2h2a1 1 0 1 0 0-2h-2v-2h2a1 1 0 1 0 0-2h-2v-2h2a1 1 0 1 0 0-2h-1.873a2.781 2.781 0 0 1 2.66-2H53v18zm-3-20v-5h2v5h-2zm3-7h-4v-.614c0-3.905-1.46-7.833-4.047-10.981.072-.055.141-.112.207-.173l2.783-2.557C51.212 17.574 53 22.402 53 27.386V28zm5 23a4.006 4.006 0 0 1-3 3.873V37.127c1.723.444 3 2.013 3 3.873v10z" data-original="#000000" class="active-path" data-old_color="#EFEAEA" fill="#F3F0F0"/></svg>