<?xml version="1.0" standalone="no"?>
<!DOCTYPE svg PUBLIC "-//W3C//DTD SVG 20010904//EN"
 "http://www.w3.org/TR/2001/REC-SVG-20010904/DTD/svg10.dtd">
<svg version="1.0" xmlns="http://www.w3.org/2000/svg"
 width="1035.000000pt" height="1035.000000pt" viewBox="0 0 1035.000000 1035.000000"
 preserveAspectRatio="xMidYMid meet">
<metadata>
Created by potrace 1.11, written by Peter Selinger 2001-2013
</metadata>
<g transform="translate(0.000000,1035.000000) scale(0.100000,-0.100000)"
fill="#000000" stroke="none">
<path d="M0 5175 l0 -5175 5175 0 5175 0 0 5175 0 5175 -5175 0 -5175 0 0
-5175z m3166 3238 c329 -351 639 -681 689 -733 50 -52 293 -310 539 -573 l449
-479 -210 -211 c-236 -238 -305 -312 -488 -512 -70 -77 -130 -140 -134 -140
-6 0 -114 115 -561 595 -64 69 -246 265 -406 435 -159 171 -401 432 -539 580
-386 416 -518 558 -660 710 -240 256 -400 428 -444 477 -49 54 -48 51 -12 183
13 44 34 123 47 175 14 52 27 103 30 113 5 16 40 17 554 17 l548 0 598 -637z
m5945 582 c10 -27 18 -55 18 -61 1 -7 -41 -40 -91 -75 -538 -367 -1060 -771
-1548 -1198 -575 -503 -1237 -1169 -1746 -1756 -697 -803 -1354 -1695 -1931
-2620 -54 -88 -113 -182 -131 -210 -47 -76 -237 -394 -268 -451 -15 -27 -54
-93 -86 -147 -32 -55 -58 -100 -58 -102 0 -2 -15 -30 -34 -62 -54 -94 -257
-466 -341 -628 -43 -82 -79 -151 -80 -153 -5 -6 -1390 -1 -1396 5 -9 11 -49
134 -49 153 0 15 197 382 335 625 221 388 529 884 791 1272 587 871 1219 1667
1918 2420 195 209 744 755 956 949 861 788 1724 1436 2659 1996 l164 98 450
-2 450 -3 18 -50z m-3331 -3447 c83 -90 682 -738 1044 -1128 99 -107 208 -224
242 -260 33 -36 110 -119 170 -185 60 -66 174 -190 254 -275 80 -85 244 -263
365 -395 121 -131 288 -312 370 -400 358 -384 910 -987 909 -993 -1 -4 -14
-65 -28 -137 -14 -71 -33 -163 -42 -202 l-15 -73 -567 0 -567 1 -225 241
c-314 337 -1242 1328 -1655 1768 -321 342 -789 840 -955 1018 -74 79 -137 148
-138 153 -4 11 77 121 278 379 176 226 463 579 470 580 4 0 44 -41 90 -92z"/>
</g>
</svg>
